<?xml version="1.0" standalone="no"?>
<!DOCTYPE svg PUBLIC "-//W3C//DTD SVG 20010904//EN"
 "http://www.w3.org/TR/2001/REC-SVG-20010904/DTD/svg10.dtd">
<svg version="1.0" xmlns="http://www.w3.org/2000/svg"
 width="581.000000pt" height="252.000000pt" viewBox="0 0 581.000000 252.000000"
 preserveAspectRatio="xMidYMid meet">

<g transform="translate(0.000000,252.000000) scale(0.100000,-0.100000)"
fill="#000000" stroke="none">
<path d="M3385 2250 c-87 -12 -212 -56 -281 -99 l-59 -37 -80 27 c-194 67
-431 62 -635 -12 -63 -23 -135 -63 -167 -92 -22 -19 -22 -19 -100 1 -347 92
-756 19 -960 -171 -73 -68 -112 -140 -120 -221 -3 -31 -9 -56 -12 -56 -189
-10 -376 -88 -444 -186 -78 -112 -22 -242 138 -319 33 -16 62 -30 64 -32 3 -2
-9 -18 -27 -36 -65 -68 -77 -142 -36 -225 50 -100 179 -172 362 -201 50 -8 71
-18 105 -46 43 -37 210 -125 238 -125 8 0 20 -5 26 -11 5 -5 39 -16 74 -23
281 -57 618 -44 842 33 l58 20 45 -34 c177 -136 534 -204 834 -161 250 36 393
96 507 212 l72 72 63 -15 c100 -26 368 -23 478 5 229 57 359 148 408 284 9 26
21 48 27 48 5 0 53 7 105 15 357 54 570 256 506 478 -13 44 -30 71 -74 118
l-58 62 24 46 c79 153 -70 337 -330 408 -56 15 -71 25 -133 89 -80 81 -166
128 -307 166 -68 18 -108 22 -218 22 -147 0 -241 -19 -355 -69 l-58 -26 -56
24 c-157 69 -296 89 -466 67z m314 -64 c30 -8 79 -25 108 -37 42 -17 51 -24
42 -35 -13 -15 -4 -34 16 -34 8 0 36 13 62 29 253 155 687 121 874 -69 30 -31
61 -71 68 -88 13 -32 38 -41 57 -22 7 7 29 4 67 -9 173 -60 287 -164 287 -263
0 -76 -74 -162 -185 -217 -66 -33 -86 -54 -68 -72 13 -13 91 21 166 72 l59 41
44 -43 c149 -146 89 -339 -141 -449 -82 -39 -206 -74 -306 -85 l-56 -6 -17 44
c-26 69 -72 123 -144 170 -105 69 -290 133 -314 109 -21 -21 2 -40 71 -57 150
-37 291 -130 332 -220 68 -149 -68 -298 -339 -372 -85 -23 -117 -27 -252 -27
-97 -1 -178 4 -217 13 l-62 14 -3 46 c-2 38 -6 46 -23 46 -15 0 -21 -9 -27
-43 -53 -312 -804 -453 -1255 -235 -55 27 -98 58 -147 106 -60 59 -71 66 -84
54 -12 -13 -12 -18 3 -41 10 -15 16 -29 13 -31 -2 -2 -49 -15 -103 -29 -359
-90 -802 -41 -1028 112 l-28 19 68 6 c99 10 145 25 141 45 -4 19 1 18 -178 6
-129 -8 -241 11 -346 60 -167 79 -209 198 -105 300 l40 39 93 -13 c114 -15
143 -12 143 15 0 17 -9 21 -68 27 -335 33 -509 197 -364 342 68 68 192 115
342 131 l60 6 17 -41 c18 -43 42 -60 60 -42 8 8 4 28 -15 70 -49 110 -29 191
72 293 178 178 533 250 880 179 59 -12 98 -25 105 -36 7 -9 18 -14 24 -10 6 3
35 -4 64 -17 58 -26 78 -25 78 2 0 11 -15 25 -40 36 -22 10 -39 23 -37 29 2 6
37 28 78 48 186 94 444 112 656 47 59 -18 63 -22 57 -44 -11 -44 21 -41 74 7
74 66 195 119 312 138 74 12 253 4 319 -14z"/>
<path d="M1695 1500 c-75 -14 -146 -124 -131 -204 8 -40 47 -76 83 -76 32 0
93 29 100 47 11 28 -15 39 -46 20 -54 -31 -91 -17 -91 36 0 34 14 63 48 100
30 32 39 33 64 10 25 -22 40 -6 36 37 -3 38 -8 40 -63 30z"/>
<path d="M2365 1500 c-75 -14 -146 -124 -131 -204 8 -40 47 -76 83 -76 32 0
93 29 100 47 11 28 -15 39 -46 20 -81 -48 -120 17 -66 109 30 51 58 63 86 38
26 -23 42 -7 37 36 -3 38 -8 40 -63 30z"/>
<path d="M2055 1488 c-2 -7 -6 -65 -10 -129 -7 -140 -4 -145 81 -135 68 8 96
22 92 44 -4 18 -17 19 -85 7 l-43 -8 0 117 c0 97 -2 116 -15 116 -9 0 -17 -6
-20 -12z"/>
<path d="M2725 1488 c-2 -7 -6 -65 -10 -129 -7 -140 -4 -145 81 -135 68 8 96
22 92 44 -4 18 -17 19 -85 7 l-43 -8 0 117 c0 97 -2 116 -15 116 -9 0 -17 -6
-20 -12z"/>
<path d="M3186 1492 c-4 -6 -10 -210 -7 -249 1 -18 74 -37 113 -29 19 3 48 20
64 37 24 25 29 39 29 77 0 64 -32 104 -112 142 -67 32 -79 35 -87 22z m124
-92 c59 -55 25 -146 -51 -138 l-34 3 -3 92 -3 92 31 -10 c16 -6 43 -24 60 -39z"/>
<path d="M3505 1490 c-45 -18 -95 -100 -95 -155 0 -61 59 -115 127 -115 88 0
155 118 123 215 -18 54 -94 81 -155 55z m99 -56 c37 -37 4 -147 -49 -160 -63
-16 -103 24 -91 89 13 71 98 114 140 71z"/>
<path d="M3705 1488 c-3 -8 -4 -70 -3 -139 3 -102 6 -124 18 -124 10 0 16 12
18 38 2 20 5 37 8 37 11 0 51 -24 87 -53 26 -20 42 -26 49 -19 15 15 2 44 -32
68 l-30 21 25 13 c50 27 45 94 -10 136 -42 31 -121 45 -130 22z m99 -59 c46
-36 25 -79 -38 -79 -24 0 -26 3 -26 50 0 42 3 50 19 50 10 0 30 -9 45 -21z"/>
<path d="M1870 1398 c-63 -95 -85 -142 -76 -163 9 -24 25 -17 47 20 18 30 26
35 60 35 34 0 40 -4 55 -35 11 -23 23 -35 33 -33 20 4 19 19 -8 128 -12 47
-23 95 -26 108 -9 39 -29 24 -85 -60z m60 -39 c0 -12 -7 -19 -20 -19 -23 0
-24 4 -8 29 14 23 28 18 28 -10z"/>
<path d="M2466 1468 c-11 -34 -14 -127 -6 -163 25 -112 150 -113 201 -1 23 50
27 176 6 176 -25 0 -37 -25 -37 -79 0 -76 -25 -125 -66 -129 -46 -4 -58 18
-64 116 -3 56 -9 87 -17 90 -7 2 -15 -2 -17 -10z"/>
<path d="M2990 1398 c-63 -95 -85 -142 -76 -163 9 -24 25 -17 47 20 18 30 26
35 60 35 34 0 40 -4 55 -35 11 -23 23 -35 33 -33 20 4 19 19 -8 128 -12 47
-24 95 -26 108 -9 39 -29 24 -85 -60z m60 -39 c0 -12 -7 -19 -20 -19 -23 0
-24 4 -8 29 14 23 28 18 28 -10z"/>
<path d="M4000 1398 c-63 -95 -85 -142 -76 -163 9 -24 25 -17 47 20 18 30 26
35 60 35 34 0 40 -4 55 -35 9 -19 22 -35 30 -35 27 0 27 -3 -28 223 -5 20 -14
37 -21 37 -7 0 -37 -37 -67 -82z m60 -39 c0 -12 -7 -19 -20 -19 -23 0 -24 4
-9 31 12 23 29 16 29 -12z"/>
</g>
</svg>
