<?xml version="1.0" standalone="no"?>
<!DOCTYPE svg PUBLIC "-//W3C//DTD SVG 20010904//EN"
 "http://www.w3.org/TR/2001/REC-SVG-20010904/DTD/svg10.dtd">
<svg version="1.0" xmlns="http://www.w3.org/2000/svg"
 width="378.000000pt" height="66.000000pt" viewBox="0 0 378.000000 66.000000"
 preserveAspectRatio="xMidYMid meet">

<g transform="translate(0.000000,66.000000) scale(0.100000,-0.100000)"
fill="#000000" stroke="none">
<path d="M310 513 c-58 -9 -73 -15 -111 -50 -145 -131 -112 -341 50 -319 54 7
124 50 119 73 -7 34 -33 37 -74 9 -128 -87 -173 67 -56 192 34 37 66 41 82 11
7 -13 19 -19 33 -17 39 5 33 111 -7 107 -6 -1 -22 -3 -36 -6z"/>
<path d="M1220 513 c-58 -9 -73 -15 -111 -50 -145 -131 -112 -341 50 -319 54
7 124 50 119 73 -7 34 -33 37 -74 9 -128 -87 -173 67 -56 192 34 37 66 41 82
11 7 -13 19 -19 33 -17 39 5 33 111 -7 107 -6 -1 -22 -3 -36 -6z"/>
<path d="M565 453 c-21 -32 -51 -80 -68 -108 -16 -27 -35 -54 -43 -58 -8 -4
-14 -17 -14 -27 0 -11 -8 -35 -17 -55 -16 -33 -16 -37 -1 -52 24 -23 46 -10
68 41 17 37 25 44 57 50 73 12 77 10 96 -45 20 -55 43 -72 63 -45 10 15 10 25
-1 56 -8 22 -23 88 -35 147 -35 177 -45 186 -105 96z m44 -124 c1 -11 -9 -19
-26 -22 -16 -3 -30 -4 -32 -2 -1 2 8 22 20 45 22 40 24 41 30 18 4 -12 7 -30
8 -39z"/>
<path d="M771 492 c-5 -10 -11 -89 -12 -175 -2 -192 -2 -192 92 -183 96 9 143
26 147 54 5 31 -15 35 -83 17 -104 -27 -97 -36 -89 130 5 110 4 148 -6 160
-17 20 -37 19 -49 -3z"/>
<path d="M1330 491 c-5 -11 -10 -68 -10 -128 1 -158 34 -220 124 -230 99 -12
159 71 179 245 11 104 5 132 -29 132 -22 0 -31 -31 -36 -125 -8 -149 -47 -210
-122 -191 -39 10 -51 57 -49 180 3 109 -4 136 -33 136 -7 0 -18 -9 -24 -19z"/>
<path d="M1681 492 c-5 -10 -11 -89 -12 -175 -2 -192 -2 -192 92 -183 96 9
143 26 147 54 5 31 -15 35 -83 17 -104 -27 -97 -36 -89 130 5 110 4 148 -6
160 -17 20 -37 19 -49 -3z"/>
<path d="M2085 453 c-21 -32 -51 -80 -68 -108 -16 -27 -35 -54 -43 -58 -8 -4
-14 -17 -14 -27 0 -11 -8 -35 -17 -55 -16 -33 -16 -37 -1 -52 24 -23 46 -10
68 41 17 37 25 44 57 50 73 12 77 10 96 -45 20 -55 43 -72 63 -45 10 15 10 25
-1 56 -8 22 -23 88 -35 147 -35 177 -45 186 -105 96z m44 -124 c1 -11 -9 -19
-26 -22 -16 -3 -30 -4 -32 -2 -1 2 8 22 20 45 22 40 24 41 30 18 4 -12 7 -30
8 -39z"/>
<path d="M2312 497 c-13 -16 -18 -325 -6 -337 5 -5 29 -14 54 -21 123 -32 230
39 230 153 0 79 -52 134 -177 188 -81 34 -86 35 -101 17z m137 -106 c77 -40
99 -96 61 -158 -20 -34 -60 -48 -116 -41 l-29 3 -3 117 -3 118 25 -10 c14 -5
43 -18 65 -29z"/>
<path d="M2745 495 c-74 -40 -116 -113 -117 -199 -1 -67 26 -110 86 -137 130
-59 255 37 256 196 0 102 -38 143 -136 151 -43 4 -67 1 -89 -11z m142 -71 c23
-23 25 -31 20 -80 -13 -125 -115 -188 -188 -115 -35 35 -38 76 -10 137 38 84
124 112 178 58z"/>
<path d="M3021 492 c-7 -13 -11 -82 -11 -175 0 -129 3 -157 16 -168 28 -23 49
1 49 60 0 28 1 51 3 51 13 0 109 -56 137 -81 36 -32 60 -33 71 -4 8 19 -9 39
-59 76 l-38 28 30 16 c113 58 28 198 -128 212 -52 5 -60 3 -70 -15z m124 -56
c18 -8 41 -26 51 -41 16 -25 16 -27 -3 -47 -13 -12 -39 -22 -67 -25 l-46 -6 0
67 c0 73 4 77 65 52z"/>
<path d="M3475 453 c-21 -32 -51 -80 -68 -108 -16 -27 -35 -54 -43 -58 -8 -4
-14 -17 -14 -27 0 -11 -8 -35 -17 -55 -16 -33 -16 -37 -1 -52 24 -23 46 -10
68 41 17 37 25 44 57 50 73 12 77 10 96 -45 20 -55 43 -72 63 -45 10 15 10 25
-1 56 -8 22 -23 88 -35 147 -35 177 -45 186 -105 96z m44 -124 c1 -11 -9 -19
-26 -22 -16 -3 -30 -4 -32 -2 -1 2 8 22 20 45 22 40 24 41 30 18 4 -12 7 -30
8 -39z"/>
</g>
</svg>
